<?xml version="1.0" standalone="no"?>
<!DOCTYPE svg PUBLIC "-//W3C//DTD SVG 20010904//EN"
 "http://www.w3.org/TR/2001/REC-SVG-20010904/DTD/svg10.dtd">
<svg version="1.0" xmlns="http://www.w3.org/2000/svg"
 width="300.000000pt" height="57.000000pt" viewBox="0 0 300.000000 57.000000"
 preserveAspectRatio="xMidYMid meet">
<metadata>
Created by potrace 1.10, written by Peter Selinger 2001-2011
</metadata>
<g transform="translate(0.000000,57.000000) scale(0.100000,-0.100000)"
fill="#000000" stroke="none">
<path d="M7 563 c-4 -3 -7 -35 -7 -69 0 -59 2 -64 24 -70 14 -3 32 -1 42 4 12
7 23 6 35 -1 13 -8 24 -8 42 0 18 9 27 9 36 0 8 -8 19 -8 40 0 21 8 32 8 40 0
8 -8 19 -8 40 0 21 8 32 8 40 0 8 -8 19 -8 41 0 20 7 32 8 36 1 4 -5 19 -8 35
-6 23 4 26 2 17 -9 -7 -9 -21 -12 -34 -9 -20 5 -24 1 -30 -29 -7 -39 -38 -49
-47 -15 -3 11 -1 20 4 20 5 0 9 -8 9 -17 0 -9 3 -14 6 -10 12 11 -7 44 -32 56
-20 9 -30 9 -40 0 -11 -9 -21 -9 -40 0 -20 9 -30 9 -40 0 -11 -9 -21 -9 -40 0
-20 9 -30 9 -40 0 -8 -6 -21 -8 -31 -5 -9 4 -21 1 -26 -6 -6 -9 -7 -8 -3 5 6
20 -5 22 -22 5 -9 -9 -18 -9 -37 0 -25 12 -25 11 -23 -36 1 -44 2 -45 5 -9 3
24 9 37 16 34 7 -2 11 -15 10 -28 -1 -13 0 -18 3 -11 9 19 24 14 24 -9 0 -11
-5 -17 -10 -14 -6 4 -13 -8 -17 -26 -5 -29 -7 -31 -15 -14 -5 13 -7 3 -3 -27
9 -94 88 -200 182 -247 47 -23 57 -26 48 -11 -3 6 1 7 9 4 22 -9 95 37 143 89
67 72 85 136 91 315 l4 152 -239 0 c-132 0 -243 -3 -246 -7z m134 -47 c5 -17
6 -32 3 -35 -3 -4 -36 -6 -72 -7 -37 0 -61 1 -54 4 16 5 16 42 0 42 -7 1 -2 7
12 14 13 8 42 13 64 13 35 -2 41 -6 47 -31z m142 27 c12 -3 17 -14 17 -38 l0
-34 -55 0 -55 0 0 33 c0 18 3 36 7 39 7 8 57 7 86 0z m167 -19 c15 -38 4 -49
-50 -51 -50 -1 -50 -1 -50 31 0 42 4 45 52 44 32 0 41 -5 48 -24z m-275 -54
c-7 -12 35 -30 50 -22 6 3 4 -1 -2 -8 -10 -11 -17 -11 -36 -1 -20 11 -28 10
-45 0 -17 -11 -24 -11 -34 -1 -9 9 -7 12 14 12 14 0 31 7 38 15 14 17 24 20
15 5z m160 0 c-7 -12 35 -30 50 -22 6 3 4 -1 -3 -9 -10 -11 -16 -11 -34 0 -17
10 -25 11 -45 0 -18 -10 -26 -10 -35 -1 -9 9 -7 12 10 12 11 0 27 7 34 15 15
16 32 20 23 5z m-112 -73 c18 9 27 9 36 0 8 -8 19 -8 39 -1 29 11 52 8 52 -7
0 -4 -7 -6 -15 -3 -9 4 -15 0 -15 -10 0 -10 6 -13 15 -10 8 4 15 2 15 -4 0 -6
3 -19 7 -29 6 -15 4 -16 -9 -5 -13 10 -17 10 -22 -3 -3 -8 -3 -23 0 -32 3 -10
-3 -3 -14 16 -12 22 -22 30 -26 22 -6 -9 -11 -9 -21 -1 -23 19 -73 1 -93 -35
-10 -17 -11 -15 -12 20 0 29 -3 36 -10 25 -11 -17 -25 -6 -33 25 -4 18 -5 18
-6 -2 0 -13 -5 -23 -11 -23 -12 0 -13 37 -1 44 16 10 39 -4 36 -22 -1 -9 0
-11 2 -4 3 6 11 12 19 12 8 0 14 4 14 10 0 5 -7 7 -15 4 -8 -4 -15 -2 -15 4 0
16 23 20 42 8 11 -7 24 -7 41 1z m222 -54 c-4 -10 -7 -27 -6 -38 2 -26 -9 -41
-36 -49 -19 -6 -23 -3 -24 16 -1 17 -3 18 -6 6 -7 -27 -20 -22 -32 12 -11 32
-4 38 18 18 9 -9 12 -9 7 -1 -7 13 28 28 44 18 5 -3 15 6 20 21 6 15 13 24 17
21 3 -3 2 -14 -2 -24z m-308 -22 c8 0 11 -10 9 -23 -3 -13 -5 -26 -5 -29 -2
-12 -43 -18 -67 -9 -30 12 -32 -3 -1 -18 17 -8 18 -11 5 -11 -22 -1 -32 17
-33 56 0 36 4 40 24 21 7 -7 12 -8 11 -3 -4 19 0 22 23 20 12 -1 28 -3 34 -4z
m286 -152 c5 -4 1 -19 -9 -34 l-17 -26 -41 38 c-23 21 -57 53 -77 71 l-35 32
-76 -70 -76 -70 -17 26 c-9 14 -13 30 -8 34 4 5 46 42 93 83 l85 75 85 -76
c47 -42 89 -79 93 -83z m-149 6 c-4 -8 -1 -15 5 -15 6 0 11 -7 11 -15 0 -8 -4
-15 -10 -15 -5 0 -10 5 -10 11 0 8 -4 8 -14 0 -10 -8 -16 -9 -21 -1 -3 5 1 10
9 10 9 0 16 5 16 10 0 6 -4 10 -9 10 -12 0 -32 -26 -26 -32 3 -3 -3 -8 -14
-11 -14 -3 -20 1 -24 19 -4 21 -1 24 16 18 16 -5 19 -3 14 10 -5 13 0 16 28
16 26 0 33 -3 29 -15z m63 -65 c2 -18 -25 -42 -44 -39 -22 4 -43 -2 -43 -12 0
-7 10 -9 25 -5 16 4 25 2 25 -5 0 -7 -3 -10 -6 -6 -3 3 -16 2 -28 -3 -29 -10
-74 9 -106 46 -21 25 -22 26 -2 10 23 -20 31 -9 10 12 -9 9 -8 12 5 12 9 0 17
-4 17 -10 0 -5 5 -10 11 -10 5 0 7 5 4 10 -4 6 10 10 34 10 48 0 56 -20 9 -21
-27 0 -29 -2 -13 -8 11 -5 26 -5 34 -1 8 4 22 5 31 3 20 -5 36 12 20 22 -5 3
-10 1 -10 -5 0 -6 -5 -8 -10 -5 -14 9 -2 25 18 25 11 0 18 -8 19 -20z"/>
<path d="M194 65 c22 -17 46 -20 46 -6 0 5 -10 11 -22 15 -37 9 -44 6 -24 -9z"/>
<path d="M1337 452 c-10 -2 -14 -8 -10 -15 15 -24 11 -37 -13 -37 -23 0 -44
-25 -44 -54 0 -25 28 -44 61 -41 l32 2 -2 74 c-1 41 -3 74 -4 75 -1 0 -10 -1
-20 -4z m-2 -102 c0 -31 -31 -40 -40 -11 -8 26 2 43 23 39 10 -2 17 -13 17
-28z"/>
<path d="M2635 452 c-5 -4 -10 -39 -10 -77 0 -59 3 -71 16 -71 13 0 16 8 11
38 -4 34 -2 38 18 38 20 0 22 -4 18 -38 -5 -31 -3 -38 12 -38 15 0 17 7 13 36
-8 57 -11 63 -38 58 -21 -4 -24 -1 -27 28 -2 20 -7 31 -13 26z"/>
<path d="M2975 452 c-5 -4 -10 -39 -10 -77 0 -57 3 -71 15 -71 13 0 15 12 12
66 -4 86 -5 91 -17 82z"/>
<path d="M645 376 c0 -69 1 -74 22 -74 19 0 21 5 16 34 -6 34 -5 34 32 34 37
0 38 0 32 -34 -4 -28 -2 -34 11 -33 14 1 17 13 17 74 0 62 -2 73 -17 73 -14 0
-16 -6 -11 -30 5 -29 4 -30 -32 -30 -36 0 -37 1 -33 30 4 25 1 30 -16 30 -19
0 -21 -6 -21 -74z"/>
<path d="M1455 377 l0 -73 46 -2 c33 -1 49 2 52 12 5 12 -1 13 -29 9 -32 -5
-34 -4 -34 22 0 24 3 27 25 23 17 -4 25 -1 25 8 0 8 -11 14 -25 14 -19 0 -25
5 -25 21 0 18 5 21 30 17 20 -3 30 0 30 9 0 9 -15 13 -47 13 l-48 0 0 -73z"/>
<path d="M2422 438 c-22 -22 -13 -48 23 -70 20 -11 34 -26 32 -32 -5 -14 -47
-21 -47 -7 0 6 -4 11 -10 11 -21 0 -9 -30 14 -36 66 -16 90 50 30 85 -35 21
-38 41 -5 41 9 0 22 -5 29 -12 9 -9 12 -7 12 10 0 18 -6 22 -33 22 -18 0 -38
-5 -45 -12z"/>
<path d="M1694 407 c-12 -15 -6 -89 9 -99 12 -8 37 1 37 13 0 5 -6 8 -12 7 -8
-2 -14 9 -16 25 -2 19 1 27 12 27 9 0 16 5 16 10 0 6 -7 10 -16 10 -8 0 -12 5
-9 10 9 14 -8 12 -21 -3z"/>
<path d="M817 393 c-14 -14 -6 -23 12 -14 18 10 31 6 31 -11 0 -4 -8 -8 -19
-8 -10 0 -25 -7 -32 -16 -11 -14 -11 -18 5 -29 10 -8 30 -12 44 -11 25 3 27 7
23 42 -1 22 -5 42 -8 47 -5 9 -47 9 -56 0z"/>
<path d="M919 396 c0 -1 -1 -21 -2 -47 -2 -36 1 -45 14 -46 14 -1 16 5 11 39
-5 38 -3 41 16 36 12 -3 23 -1 25 6 3 6 14 -11 26 -38 12 -27 23 -47 25 -45 1
2 14 25 29 52 24 44 24 47 6 47 -13 0 -19 -7 -19 -24 0 -37 -19 -42 -26 -7 -6
28 -8 30 -55 28 -27 0 -49 -1 -50 -1z"/>
<path d="M1100 384 c0 -14 3 -14 15 -4 12 10 19 10 27 2 8 -8 5 -14 -14 -21
-34 -13 -44 -30 -26 -47 9 -9 25 -12 44 -8 29 5 30 7 25 47 -6 39 -9 42 -38
45 -26 3 -33 -1 -33 -14z"/>
<path d="M1204 393 c-5 -2 -8 -22 -6 -46 3 -33 8 -43 22 -44 15 -1 17 4 13 38
-5 35 -3 39 16 39 12 0 19 4 16 10 -5 9 -39 10 -61 3z"/>
<path d="M1570 391 c0 -5 7 -11 15 -15 8 -3 15 -12 15 -19 0 -8 -7 -20 -15
-27 -19 -16 -19 -30 -1 -30 7 0 16 9 19 21 6 21 27 18 27 -4 0 -7 9 -13 20
-14 25 -2 25 2 -1 28 -19 19 -19 22 -5 38 20 22 20 31 1 31 -8 0 -15 -7 -15
-15 0 -8 -4 -15 -10 -15 -5 0 -10 7 -10 15 0 8 -9 15 -20 15 -11 0 -20 -4 -20
-9z"/>
<path d="M1766 384 c-21 -21 -20 -40 4 -64 24 -24 43 -25 60 -6 10 13 7 15
-16 13 -20 -1 -29 3 -32 16 -3 13 3 17 27 17 33 0 39 8 19 28 -17 17 -44 15
-62 -4z"/>
<path d="M1865 394 c-6 -2 -9 -23 -7 -47 3 -33 8 -43 22 -44 15 -1 17 4 13 38
-5 32 -3 39 11 39 14 0 17 -8 14 -37 -2 -31 1 -37 19 -39 20 -3 21 0 16 34 -3
20 -10 43 -16 50 -9 11 -51 15 -72 6z"/>
<path d="M1979 384 c-12 -14 -9 -20 16 -41 l30 -25 -27 6 c-32 7 -38 -9 -8
-19 22 -7 50 10 50 30 0 6 -12 17 -26 23 -14 7 -22 17 -19 22 4 7 13 7 26 0
15 -9 19 -7 19 5 0 20 -44 20 -61 -1z"/>
<path d="M2069 398 c0 -2 -1 -23 -2 -48 -2 -38 0 -46 15 -46 12 0 16 6 13 14
-3 7 -5 29 -5 48 0 19 -4 34 -10 34 -5 0 -10 -1 -11 -2z"/>
<path d="M2127 380 c-27 -39 8 -89 53 -75 24 7 37 51 23 74 -16 25 -59 26 -76
1z m61 -34 c-2 -13 -10 -21 -23 -21 -23 0 -32 30 -14 51 16 19 41 -1 37 -30z"/>
<path d="M2239 396 c0 -1 -1 -21 -2 -46 -2 -37 1 -46 14 -46 13 0 16 8 11 38
-4 34 -2 38 18 38 20 0 22 -4 18 -38 -5 -31 -2 -38 12 -39 16 -1 18 4 13 35
-8 59 -10 62 -48 60 -19 -1 -35 -2 -36 -2z"/>
<path d="M2530 381 c-16 -31 -12 -49 14 -66 19 -13 29 -14 45 -5 28 15 26 22
-3 14 -33 -8 -54 27 -30 51 12 12 19 13 30 4 11 -9 14 -8 14 5 0 24 -56 21
-70 -3z"/>
<path d="M2745 376 c-19 -29 -8 -61 26 -71 41 -13 78 52 47 83 -20 20 -56 14
-73 -12z m60 -35 c-9 -29 -39 -23 -43 8 -2 13 2 27 10 32 19 12 41 -14 33 -40z"/>
<path d="M2862 388 c-34 -34 2 -98 48 -83 24 7 37 51 23 74 -13 20 -54 26 -71
9z m56 -42 c-2 -13 -10 -21 -23 -21 -23 0 -32 30 -14 51 16 19 41 -1 37 -30z"/>
<path d="M640 178 c0 -21 5 -38 10 -38 6 0 10 7 10 15 0 21 18 19 23 -2 3 -10
5 0 5 22 0 22 -2 32 -5 23 -2 -10 -7 -18 -10 -18 -3 0 -12 8 -19 18 -12 15
-13 13 -14 -20z"/>
<path d="M716 180 c-14 -35 -12 -56 4 -30 7 12 11 12 26 -1 15 -13 16 -12 9
11 -16 54 -23 57 -39 20z"/>
<path d="M777 204 c-10 -11 -9 -64 2 -64 5 0 12 6 14 13 4 10 6 10 6 0 1 -7 5
-13 10 -13 16 0 7 65 -9 68 -9 1 -19 0 -23 -4z"/>
<path d="M830 198 c1 -7 7 -24 15 -38 l13 -25 11 28 c16 40 13 57 -4 27 -10
-18 -14 -20 -15 -8 0 9 -4 20 -10 23 -5 3 -10 0 -10 -7z"/>
<path d="M897 180 c-16 -39 -14 -48 6 -32 10 9 17 8 26 -1 11 -10 12 -7 6 13
-16 53 -22 56 -38 20z"/>
<path d="M957 204 c-11 -11 -8 -64 3 -64 6 0 10 5 10 11 0 8 4 8 14 0 12 -10
14 -6 13 21 -2 31 -23 48 -40 32z"/>
<path d="M1020 176 c0 -30 4 -36 20 -36 40 0 36 60 -4 68 -12 3 -16 -4 -16
-32z"/>
<path d="M1110 174 c0 -31 3 -35 23 -32 41 6 32 67 -10 68 -8 0 -13 -14 -13
-36z"/>
<path d="M1204 194 c5 -10 11 -27 13 -36 3 -10 9 -18 13 -18 10 0 32 61 25 69
-3 3 -8 -5 -12 -17 -6 -25 -23 -30 -23 -8 0 8 -5 18 -12 22 -8 5 -9 2 -4 -12z"/>
<path d="M1270 176 c0 -20 5 -36 10 -36 6 0 10 13 10 29 0 17 -4 33 -10 36 -6
4 -10 -8 -10 -29z"/>
<path d="M1304 198 c-4 -6 0 -16 9 -23 22 -16 22 -26 0 -18 -11 4 -14 3 -9 -5
4 -7 13 -12 21 -12 23 0 29 22 10 37 -17 12 -18 13 -1 13 9 0 14 5 11 10 -8
14 -32 13 -41 -2z"/>
<path d="M1400 195 c-19 -23 -8 -50 20 -50 28 0 39 27 20 50 -16 19 -24 19
-40 0z"/>
<path d="M1560 189 c-13 -23 1 -49 26 -49 20 0 34 32 23 53 -13 23 -36 21 -49
-4z"/>
<path d="M1631 173 c1 -21 3 -30 6 -20 2 9 10 17 16 17 7 0 6 4 -3 10 -13 8
-12 10 3 10 9 0 17 5 17 10 0 6 -9 10 -20 10 -17 0 -20 -6 -19 -37z"/>
<path d="M1710 195 c-6 -8 -9 -23 -5 -35 7 -21 39 -27 50 -9 4 6 0 9 -11 7
-11 -2 -20 4 -22 15 -3 15 0 18 17 12 24 -7 29 10 5 19 -21 8 -20 8 -34 -9z"/>
<path d="M1777 204 c-13 -13 -7 -55 9 -61 24 -9 51 23 38 45 -12 19 -36 27
-47 16z"/>
<path d="M1842 175 c0 -27 2 -32 5 -16 l5 25 19 -25 19 -24 -2 40 c0 27 -2 32
-5 16 l-5 -25 -19 25 -19 24 2 -40z"/>
<path d="M1917 178 c6 -35 11 -44 17 -37 2 2 6 19 9 37 6 27 4 32 -13 32 -17
0 -19 -5 -13 -32z"/>
<path d="M2040 189 c0 -11 -4 -17 -10 -14 -16 10 -12 -11 5 -25 13 -11 15 -7
15 24 0 20 -2 36 -5 36 -3 0 -5 -9 -5 -21z"/>
<path d="M2073 180 c2 -28 6 -35 22 -35 15 0 21 8 23 34 2 21 0 31 -7 26 -6
-3 -11 -18 -11 -33 0 -31 -16 -19 -23 18 -3 17 -5 13 -4 -10z"/>
<path d="M2137 203 c-11 -10 -8 -63 3 -63 6 0 10 16 10 35 0 36 -2 40 -13 28z"/>
<path d="M2167 189 c-9 -34 -8 -49 3 -49 6 0 10 8 10 18 1 16 1 16 14 0 19
-26 26 -22 26 12 0 17 -4 30 -10 30 -5 0 -7 -8 -4 -17 4 -12 0 -11 -14 6 l-19
24 -6 -24z"/>
<path d="M2240 195 c-18 -22 -3 -55 26 -55 20 0 24 4 22 23 -7 45 -26 58 -48
32z"/>
<path d="M2330 175 c0 -30 3 -35 23 -34 16 1 18 2 5 6 -21 5 -24 23 -5 23 8 0
7 4 -3 10 -13 8 -12 10 3 10 9 0 17 5 17 10 0 6 -9 10 -20 10 -16 0 -20 -7
-20 -35z"/>
<path d="M2388 198 c-9 -25 4 -58 22 -58 23 0 36 36 20 55 -15 18 -37 19 -42
3z"/>
<path d="M2491 188 c-1 -35 -21 -47 -21 -14 0 14 -4 26 -10 26 -16 0 -11 -50
6 -57 22 -8 36 10 31 43 l-4 29 -2 -27z"/>
<path d="M2521 192 c-7 -14 -7 -24 3 -37 14 -19 46 -15 46 6 0 8 -4 9 -13 0
-15 -12 -27 -5 -27 17 0 10 7 13 21 9 13 -3 19 -1 16 6 -6 20 -35 19 -46 -1z"/>
<path d="M2591 187 c-15 -39 -14 -52 2 -38 10 8 17 7 26 -2 11 -10 12 -7 6 13
-15 51 -23 57 -34 27z"/>
<path d="M2630 200 c0 -5 5 -10 10 -10 6 0 10 -11 10 -25 0 -14 5 -25 11 -25
7 0 9 10 7 25 -3 14 -1 25 3 25 5 0 9 5 9 10 0 6 -11 10 -25 10 -14 0 -25 -4
-25 -10z"/>
<path d="M2697 203 c-11 -10 -8 -63 3 -63 6 0 10 16 10 35 0 36 -2 40 -13 28z"/>
<path d="M2730 195 c-17 -21 -2 -50 26 -50 14 0 19 7 19 30 0 34 -24 45 -45
20z"/>
<path d="M2800 193 c0 -12 -3 -28 -6 -37 -3 -9 -1 -16 5 -16 6 0 11 8 11 18 1
16 1 16 14 0 20 -26 26 -22 26 18 0 22 -4 33 -11 29 -6 -4 -8 -14 -5 -24 4 -9
-3 -5 -14 9 -19 24 -20 24 -20 3z"/>
<path d="M1360 170 c0 -16 5 -30 10 -30 6 0 10 14 10 30 0 17 -4 30 -10 30 -5
0 -10 -13 -10 -30z"/>
<path d="M1460 170 c0 -16 4 -30 9 -30 10 0 22 40 15 52 -11 18 -24 6 -24 -22z"/>
<path d="M1503 186 c3 -8 1 -16 -5 -18 -6 -2 -8 -10 -4 -16 13 -22 26 -13 26
18 0 17 -5 30 -11 30 -6 0 -9 -6 -6 -14z"/>
</g>
</svg>
